Diabolik-Gras.ufo
<glyph name="exclam" format="2">
  <advance width="400"/>
  <unicode hex="0021"/>
  <outline>
    <contour>
      <point x="260" y="0" type="line"/>
      <point x="260" y="130" type="line"/>
      <point x="80" y="130" type="line"/>
      <point x="80" y="0" type="line"/>
    </contour>
    <contour>
      <point x="80" y="180" type="line"/>
      <point x="80" y="700" type="line"/>
      <point x="300" y="700" type="line"/>
      <point x="260" y="180" type="line"/>
    </contour>
  </outline>
</glyph>
<glyph name="quotedbl" format="2">
  <advance width="577"/>
  <unicode hex="0022"/>
  <outline>
    <contour>
      <point x="277" y="550" type="line"/>
      <point x="287" y="700" type="line"/>
      <point x="77" y="700" type="line"/>
      <point x="77" y="550" type="line"/>
      <point x="50" y="435" type="line"/>
      <point x="220" y="435" type="line"/>
    </contour>
    <contour>
      <point x="527" y="550" type="line"/>
      <point x="537" y="700" type="line"/>
      <point x="327" y="700" type="line"/>
      <point x="327" y="550" type="line"/>
      <point x="300" y="435" type="line"/>
      <point x="470" y="435" type="line"/>
    </contour>
  </outline>
</glyph>
<glyph name="numbersign" format="2">
  <advance width="763"/>
  <unicode hex="0023"/>
  <outline>
    <contour>
      <point x="68" y="0" type="line"/>
      <point x="207.348" y="700" type="line"/>
      <point x="428.348" y="700" type="line"/>
      <point x="249" y="0" type="line"/>
    </contour>
    <contour>
      <point x="359" y="0" type="line"/>
      <point x="498.348" y="700" type="line"/>
      <point x="719.348" y="700" type="line"/>
      <point x="540" y="0" type="line"/>
    </contour>
    <contour>
      <point x="733" y="371" type="line"/>
      <point x="73" y="371" type="line"/>
      <point x="73" y="551" type="line"/>
      <point x="733" y="551" type="line"/>
    </contour>
    <contour>
      <point x="690" y="121" type="line"/>
      <point x="30" y="121" type="line"/>
      <point x="30" y="301" type="line"/>
      <point x="690" y="301" type="line"/>
    </contour>
  </outline>
</glyph>
<glyph name="dollar" format="2">
  <advance width="547"/>
  <unicode hex="0024"/>
  <outline>
    <contour>
      <point x="179" y="850" type="line"/>
      <point x="389" y="850" type="line"/>
      <point x="359" y="-150" type="line"/>
      <point x="179" y="-150" type="line"/>
    </contour>
    <contour>
      <point x="35" y="388" type="line"/>
      <point x="117" y="700" type="line"/>
      <point x="234" y="729"/>
      <point x="335" y="729"/>
      <point x="461" y="700" type="curve"/>
      <point x="461" y="489" type="line"/>
      <point x="321" y="542" type="line"/>
      <point x="248" y="437" type="line"/>
      <point x="512" y="320" type="line"/>
      <point x="431" y="0" type="line"/>
      <point x="314" y="-31"/>
      <point x="161" y="-31"/>
      <point x="35" y="0" type="curve"/>
      <point x="36" y="221" type="line"/>
      <point x="229" y="159" type="line"/>
      <point x="291" y="234" type="line"/>
    </contour>
  </outline>
</glyph>
<glyph name="percent" format="2">
  <advance width="903"/>
  <unicode hex="0025"/>
  <outline>
    <contour>
      <point x="178" y="0" type="line"/>
      <point x="517.348" y="700" type="line"/>
      <point x="740.348" y="700" type="line"/>
      <point x="361" y="0" type="line"/>
    </contour>
    <contour>
      <point x="87.008" y="700" type="line"/>
      <point x="200.756" y="700" type="line" smooth="yes"/>
      <point x="328.432" y="700"/>
      <point x="346.423" y="573.485"/>
      <point x="346.423" y="462.638" type="curve"/>
      <point x="298.834" y="290.276" type="line"/>
      <point x="190.31" y="290.276" type="line" smooth="yes"/>
      <point x="62.6335" y="290.276"/>
      <point x="40" y="434.202"/>
      <point x="40" y="527.637" type="curve"/>
    </contour>
    <contour>
      <point x="166.65" y="584.698" type="line"/>
      <point x="141.769" y="515.91" type="line"/>
      <point x="141.769" y="452.912"/>
      <point x="147.899" y="405.578"/>
      <point x="204.789" y="405.578" type="curve" smooth="yes"/>
      <point x="219.432" y="405.578" type="line"/>
      <point x="244.653" y="474.365" type="line"/>
      <point x="244.653" y="532.937"/>
      <point x="242.27" y="584.698"/>
      <point x="178.228" y="584.698" type="curve" smooth="yes"/>
    </contour>
    <contour>
      <point x="603.008" y="410" type="line"/>
      <point x="716.756" y="410" type="line" smooth="yes"/>
      <point x="844.432" y="410"/>
      <point x="862.423" y="283.485"/>
      <point x="862.423" y="172.638" type="curve"/>
      <point x="814.834" y="0.275665" type="line"/>
      <point x="706.31" y="0.275665" type="line" smooth="yes"/>
      <point x="578.634" y="0.275665"/>
      <point x="556" y="144.202"/>
      <point x="556" y="237.637" type="curve"/>
    </contour>
    <contour>
      <point x="682.65" y="294.698" type="line"/>
      <point x="657.769" y="225.91" type="line"/>
      <point x="657.769" y="162.912"/>
      <point x="663.899" y="115.578"/>
      <point x="720.789" y="115.578" type="curve" smooth="yes"/>
      <point x="735.432" y="115.578" type="line"/>
      <point x="760.653" y="184.365" type="line"/>
      <point x="760.653" y="242.937"/>
      <point x="758.27" y="294.698"/>
      <point x="694.228" y="294.698" type="curve" smooth="yes"/>
    </contour>
  </outline>
</glyph>
<glyph name="parenright" format="2">
  <advance width="499"/>
  <unicode hex="0029"/>
  <outline>
    <contour>
      <point x="419" y="320" type="curve" smooth="yes"/>
      <point x="419" y="477.765"/>
      <point x="371.4" y="633.7"/>
      <point x="294" y="750" type="curve"/>
      <point x="70.039" y="750" type="line"/>
      <point x="161.839" y="609.3"/>
      <point x="239" y="479.11"/>
      <point x="239" y="320" type="curve" smooth="yes"/>
      <point x="239" y="160.89"/>
      <point x="151.839" y="10.7"/>
      <point x="60" y="-130" type="curve"/>
      <point x="284" y="-130" type="line"/>
      <point x="361.82" y="-13.9511"/>
      <point x="419" y="162.235"/>
    </contour>
  </outline>
</glyph>
<glyph name="comma" format="2">
  <advance width="296"/>
  <unicode hex="002C"/>
  <outline>
    <contour>
      <point x="246" y="0" type="line"/>
      <point x="246" y="140" type="line"/>
      <point x="56" y="140" type="line"/>
      <point x="56" y="0" type="line"/>
      <point x="20" y="-115" type="line"/>
      <point x="181" y="-115" type="line"/>
    </contour>
  </outline>
</glyph>
<glyph name="hyphen" format="2">
  <advance width="320"/>
  <unicode hex="002D"/>
  <outline>
    <contour>
      <point x="50" y="177" type="line"/>
      <point x="50" y="357" type="line"/>
      <point x="300" y="357" type="line"/>
      <point x="300" y="137" type="line"/>
    </contour>
  </outline>
</glyph>
<glyph name="period" format="2">
  <advance width="240"/>
  <unicode hex="002E"/>
  <outline>
    <contour>
      <point x="210" y="0" type="line"/>
      <point x="220" y="140" type="line"/>
      <point x="30" y="140" type="line"/>
      <point x="30" y="0" type="line"/>
    </contour>
  </outline>
</glyph>
<glyph name="slash" format="2">
  <advance width="551"/>
  <unicode hex="002F"/>
  <outline>
    <contour>
      <point x="80" y="0" type="line"/>
      <point x="219.348" y="700" type="line"/>
      <point x="440.348" y="700" type="line"/>
      <point x="261" y="0" type="line"/>
    </contour>
  </outline>
</glyph>
<glyph name="zero" format="2">
  <advance width="588"/>
  <unicode hex="0030"/>
  <outline>
    <contour>
      <point x="126" y="703" type="line"/>
      <point x="312" y="703" type="line" smooth="yes"/>
      <point x="532" y="703"/>
      <point x="543" y="485"/>
      <point x="543" y="294" type="curve"/>
      <point x="461" y="-3" type="line"/>
      <point x="284" y="-3" type="line" smooth="yes"/>
      <point x="64" y="-3"/>
      <point x="45" y="245"/>
      <point x="45" y="406" type="curve"/>
    </contour>
    <contour>
      <point x="276" y="513" type="line"/>
      <point x="230" y="411" type="line"/>
      <point x="230" y="239.074"/>
      <point x="247" y="187"/>
      <point x="308" y="187" type="curve"/>
      <point x="311" y="187" type="line"/>
      <point x="358" y="289" type="line"/>
      <point x="358" y="461"/>
      <point x="341" y="513"/>
      <point x="280" y="513" type="curve" smooth="yes"/>
    </contour>
  </outline>
</glyph>
<glyph name="one" format="2">
  <advance width="310"/>
  <unicode hex="0031"/>
  <outline>
    <contour>
      <point x="0" y="700" type="line"/>
      <point x="241.159" y="700" type="line"/>
      <point x="270" y="700" type="line"/>
      <point x="270" y="0" type="line"/>
      <point x="50" y="0" type="line"/>
      <point x="90" y="520" type="line"/>
      <point x="78.498" y="514.888" type="line"/>
      <point x="0" y="480" type="line"/>
    </contour>
  </outline>
</glyph>
<glyph name="two" format="2">
  <advance width="427"/>
  <unicode hex="0032"/>
  <outline>
    <contour>
      <point x="411.107" y="0" type="line"/>
      <point x="71.8378" y="0" type="line"/>
      <point x="30.002" y="0" type="line"/>
      <point x="81.4703" y="144.565"/>
      <point x="192.572" y="421.755"/>
      <point x="193.943" y="479" type="curve" smooth="yes"/>
      <point x="194.972" y="521.992"/>
      <point x="174.383" y="534.939"/>
      <point x="74" y="470.939" type="curve"/>
      <point x="74" y="690.999" type="line"/>
      <point x="199.958" y="720.999"/>
      <point x="369.97" y="712.999"/>
      <point x="370.017" y="592" type="curve" smooth="yes"/>
      <point x="370.051" y="502.744"/>
      <point x="311.468" y="364.164"/>
      <point x="249" y="179.599" type="curve"/>
      <point x="249.303" y="179.599" type="line"/>
      <point x="411.107" y="219.599" type="line"/>
    </contour>
  </outline>
</glyph>
<glyph name="three" format="2">
  <advance width="451"/>
  <unicode hex="0033"/>
  <outline>
    <contour>
      <point x="75" y="447.05" type="line"/>
      <point x="140.078" y="468"/>
      <point x="185.785" y="493.252"/>
      <point x="185.754" y="507.998" type="curve" smooth="yes"/>
      <point x="185.713" y="527.026"/>
      <point x="130.943" y="513.79"/>
      <point x="55" y="499.95" type="curve"/>
      <point x="55" y="700" type="line"/>
      <point x="250.95" y="703"/>
      <point x="374.946" y="685"/>
      <point x="374.994" y="557" type="curve" smooth="yes"/>
      <point x="375.024" y="477.604"/>
      <point x="289.787" y="412.104"/>
      <point x="273" y="399.069" type="curve"/>
      <point x="360.602" y="358.646"/>
      <point x="405.007" y="306.696"/>
      <point x="405.007" y="215.999" type="curve" smooth="yes"/>
      <point x="405.007" y="77.5985"/>
      <point x="280" y="-5"/>
      <point x="40" y="-5" type="curve"/>
      <point x="40" y="215.05" type="line"/>
      <point x="160.32" y="215.192"/>
      <point x="214.943" y="224.049"/>
      <point x="214.943" y="254.999" type="curve" smooth="yes"/>
      <point x="214.943" y="277.399"/>
      <point x="173.569" y="296.773"/>
      <point x="74.6466" y="307.069" type="curve"/>
    </contour>
  </outline>
</glyph>
<glyph name="four" format="2">
  <advance width="501"/>
  <unicode hex="0034"/>
  <outline>
    <contour>
      <point x="288" y="700" type="line"/>
      <point x="15.2343" y="301" type="line"/>
      <point x="15.2343" y="151" type="line"/>
      <point x="252.983" y="151" type="line"/>
      <point x="238" y="0" type="line"/>
      <point x="438" y="0" type="line"/>
      <point x="437.699" y="150.708" type="line"/>
      <point x="489.93" y="150.626" type="line"/>
      <point x="490.22" y="351.056" type="line"/>
      <point x="437.58" y="346.04" type="line"/>
      <point x="438" y="700" type="line"/>
    </contour>
    <contour>
      <point x="195.081" y="314" type="line"/>
      <point x="208.864" y="336.039" type="line"/>
      <point x="271.891" y="428.439" type="line"/>
      <point x="287" y="448" type="line"/>
      <point x="273.347" y="328" type="line"/>
    </contour>
  </outline>
</glyph>
<glyph name="five" format="2">
  <advance width="497"/>
  <unicode hex="0035"/>
  <outline>
    <contour>
      <point x="411.107" y="700.999" type="line"/>
      <point x="411.107" y="481.4" type="line"/>
      <point x="222" y="526.4" type="line"/>
      <point x="221.9" y="503.098" type="line"/>
      <point x="221" y="449.069" type="line"/>
      <point x="369.486" y="424.069"/>
      <point x="451.007" y="364.971"/>
      <point x="451.007" y="248.999" type="curve" smooth="yes"/>
      <point x="451.007" y="66.5968"/>
      <point x="255.99" y="-5"/>
      <point x="46" y="-5" type="curve"/>
      <point x="46" y="215.06" type="line"/>
      <point x="146.266" y="205.06"/>
      <point x="260.943" y="199.054"/>
      <point x="260.943" y="253.999" type="curve" smooth="yes"/>
      <point x="260.943" y="301.4"/>
      <point x="169.63" y="309.069"/>
      <point x="40.6466" y="319.069" type="curve"/>
      <point x="40.9458" y="658.099" type="line"/>
      <point x="41.0021" y="700.999" type="line"/>
    </contour>
  </outline>
</glyph>
<glyph name="six" format="2">
  <advance width="538"/>
  <unicode hex="0036"/>
  <outline>
    <contour>
      <point x="36.0069" y="342" type="line"/>
      <point x="104.704" y="450.687"/>
      <point x="197.196" y="505"/>
      <point x="272.8" y="505" type="curve" smooth="yes"/>
      <point x="423.062" y="505"/>
      <point x="492.007" y="399.359"/>
      <point x="492.007" y="260" type="curve" smooth="yes"/>
      <point x="492.007" y="140.743"/>
      <point x="443.03" y="-3"/>
      <point x="263.007" y="-3" type="curve" smooth="yes"/>
      <point x="26.0138" y="-3"/>
      <point x="26.0069" y="234"/>
      <point x="36.0069" y="342" type="curve"/>
      <point x="166.007" y="705" type="line"/>
      <point x="387.21" y="705" type="line"/>
      <point x="226.007" y="337" type="line"/>
      <point x="231.007" y="242"/>
      <point x="248.007" y="144"/>
      <point x="274.007" y="144" type="curve" smooth="yes"/>
      <point x="291.007" y="144"/>
      <point x="295.539" y="172.859"/>
      <point x="291.957" y="228" type="curve" smooth="yes"/>
      <point x="285.957" y="320.349"/>
      <point x="268.295" y="365.341"/>
      <point x="250.796" y="365.227" type="curve" smooth="yes"/>
      <point x="241.056" y="365.163"/>
      <point x="236.039" y="357.94"/>
      <point x="226.007" y="337" type="curve"/>
    </contour>
  </outline>
</glyph>
<glyph name="seven" format="2">
  <advance width="390"/>
  <unicode hex="0037"/>
  <outline>
    <contour>
      <point x="0" y="700" type="line"/>
      <point x="320.286" y="700" type="line"/>
      <point x="350" y="700" type="line"/>
      <point x="240" y="0" type="line"/>
      <point x="19" y="0" type="line"/>
      <point x="167.498" y="523.528" type="line"/>
      <point x="150.247" y="520" type="line"/>
      <point x="0" y="480" type="line"/>
    </contour>
  </outline>
</glyph>
<glyph name="nine" format="2">
  <advance width="537"/>
  <unicode hex="0039"/>
  <outline>
    <contour>
      <point x="501.007" y="360" type="line"/>
      <point x="432.31" y="251.313"/>
      <point x="339.818" y="197"/>
      <point x="264.214" y="197" type="curve" smooth="yes"/>
      <point x="113.952" y="197"/>
      <point x="45.0069" y="302.641"/>
      <point x="45.0069" y="442" type="curve" smooth="yes"/>
      <point x="45.0069" y="561.257"/>
      <point x="93.9838" y="705"/>
      <point x="274.007" y="705" type="curve" smooth="yes"/>
      <point x="511" y="705"/>
      <point x="511.007" y="468"/>
      <point x="501.007" y="360" type="curve"/>
      <point x="371.007" y="-3" type="line"/>
      <point x="149.804" y="-3" type="line"/>
      <point x="311.007" y="365" type="line"/>
      <point x="306.007" y="460"/>
      <point x="289.007" y="558"/>
      <point x="263.007" y="558" type="curve" smooth="yes"/>
      <point x="246.007" y="558"/>
      <point x="241.474" y="529.141"/>
      <point x="245.057" y="474" type="curve" smooth="yes"/>
      <point x="251.057" y="381.651"/>
      <point x="268.719" y="336.659"/>
      <point x="286.218" y="336.773" type="curve" smooth="yes"/>
      <point x="295.958" y="336.837"/>
      <point x="300.975" y="344.06"/>
      <point x="311.007" y="365" type="curve"/>
    </contour>
  </outline>
</glyph>
<glyph name="colon" format="2">
  <advance width="340"/>
  <unicode hex="003A"/>
  <outline>
    <contour>
      <point x="255" y="75" type="line"/>
      <point x="265" y="215" type="line"/>
      <point x="75" y="215" type="line"/>
      <point x="75" y="75" type="line"/>
    </contour>
    <contour>
      <point x="255" y="257" type="line"/>
      <point x="265" y="397" type="line"/>
      <point x="75" y="397" type="line"/>
      <point x="75" y="257" type="line"/>
    </contour>
  </outline>
</glyph>
<glyph name="semicolon" format="2">
  <advance width="286"/>
  <unicode hex="003B"/>
  <outline>
    <contour>
      <point x="236" y="-60" type="line"/>
      <point x="236" y="80" type="line"/>
      <point x="56" y="80" type="line"/>
      <point x="56" y="-60" type="line"/>
      <point x="20" y="-175" type="line"/>
      <point x="171" y="-175" type="line"/>
    </contour>
    <contour>
      <point x="226" y="130" type="line"/>
      <point x="236" y="260" type="line"/>
      <point x="56" y="260" type="line"/>
      <point x="56" y="130" type="line"/>
    </contour>
  </outline>
</glyph>
<glyph name="equal" format="2">
  <advance width="510"/>
  <unicode hex="003D"/>
  <outline>
    <contour>
      <point x="130" y="64" type="line"/>
      <point x="130" y="234" type="line"/>
      <point x="430" y="234" type="line"/>
      <point x="430" y="34" type="line"/>
    </contour>
    <contour>
      <point x="130" y="305" type="line"/>
      <point x="130" y="465" type="line"/>
      <point x="430" y="465" type="line"/>
      <point x="430" y="275" type="line"/>
    </contour>
  </outline>
</glyph>
<glyph name="question" format="2">
  <advance width="481"/>
  <unicode hex="003F"/>
  <outline>
    <contour>
      <point x="80.0104" y="180" type="line"/>
      <point x="80.0104" y="337.599" type="line"/>
      <point x="130.81" y="404.661"/>
      <point x="209.165" y="462.603"/>
      <point x="210.262" y="513.852" type="curve"/>
      <point x="60.0104" y="479.94" type="line"/>
      <point x="60.0104" y="700" type="line"/>
      <point x="279.968" y="700"/>
      <point x="399.966" y="691"/>
      <point x="400.018" y="559" type="curve" smooth="yes"/>
      <point x="400.053" y="469.744"/>
      <point x="305.81" y="378.662"/>
      <point x="260.01" y="311.599" type="curve"/>
      <point x="260.01" y="180.001" type="line"/>
    </contour>
    <contour>
      <point x="260.01" y="0" type="line"/>
      <point x="260.01" y="130" type="line"/>
      <point x="80.0103" y="130" type="line"/>
      <point x="80.0103" y="0" type="line"/>
    </contour>
  </outline>
</glyph>
<glyph name="A" format="2">
  <advance width="689"/>
  <unicode hex="0041"/>
  <outline>
    <contour>
      <point x="243" y="700" type="line"/>
      <point x="20" y="0" type="line"/>
      <point x="240" y="0" type="line"/>
      <point x="279" y="151" type="line"/>
      <point x="419" y="117" type="line"/>
      <point x="449" y="0" type="line"/>
      <point x="669" y="0" type="line"/>
      <point x="453" y="700" type="line"/>
    </contour>
    <contour>
      <point x="307" y="331" type="line"/>
      <point x="348" y="515" type="line"/>
      <point x="385" y="331" type="line"/>
    </contour>
  </outline>
</glyph>
<glyph name="B" format="2">
  <advance width="611"/>
  <unicode hex="0042"/>
  <outline>
    <contour>
      <point x="40" y="700" type="line"/>
      <point x="140" y="721"/>
      <point x="343" y="721"/>
      <point x="443" y="700" type="curve"/>
      <point x="531" y="570" type="line"/>
      <point x="531" y="482"/>
      <point x="523" y="426"/>
      <point x="462" y="393" type="curve"/>
      <point x="591" y="260" type="line"/>
      <point x="591" y="110"/>
      <point x="573" y="0"/>
      <point x="353" y="0" type="curve" smooth="yes"/>
      <point x="40" y="0" type="line"/>
    </contour>
    <contour>
      <point x="242" y="454" type="line"/>
      <point x="292" y="434" type="line"/>
      <point x="330" y="435"/>
      <point x="356" y="440"/>
      <point x="350" y="526" type="curve"/>
      <point x="282" y="578" type="line"/>
      <point x="252" y="578" type="line"/>
    </contour>
    <contour>
      <point x="220" y="140" type="line"/>
      <point x="303" y="140" type="line" smooth="yes"/>
      <point x="377" y="140"/>
      <point x="401" y="160"/>
      <point x="401" y="221" type="curve"/>
      <point x="290" y="304" type="line"/>
      <point x="234" y="304" type="line"/>
    </contour>
  </outline>
</glyph>
<glyph name="C" format="2">
  <advance width="529"/>
  <unicode hex="0043"/>
  <outline>
    <contour>
      <point x="469" y="0" type="line"/>
      <point x="284" y="0" type="line" smooth="yes"/>
      <point x="44" y="0"/>
      <point x="46" y="239"/>
      <point x="46" y="389" type="curve"/>
      <point x="124" y="690" type="line"/>
      <point x="242" y="722"/>
      <point x="371" y="722"/>
      <point x="497" y="690" type="curve"/>
      <point x="497" y="469" type="line"/>
      <point x="303" y="533" type="line"/>
      <point x="236" y="388" type="line"/>
      <point x="236" y="234"/>
      <point x="251" y="190"/>
      <point x="314" y="190" type="curve"/>
      <point x="469" y="210" type="line"/>
    </contour>
  </outline>
</glyph>
<glyph name="D" format="2">
  <advance width="656"/>
  <unicode hex="0044"/>
  <outline>
    <contour>
      <point x="40" y="700" type="line"/>
      <point x="166" y="734"/>
      <point x="415" y="734"/>
      <point x="533" y="700" type="curve"/>
      <point x="611" y="389" type="line"/>
      <point x="611" y="229"/>
      <point x="583" y="0"/>
      <point x="343" y="0" type="curve" smooth="yes"/>
      <point x="40" y="0" type="line"/>
    </contour>
    <contour>
      <point x="220" y="161" type="line"/>
      <point x="303" y="140" type="line"/>
      <point x="415" y="140"/>
      <point x="419" y="284"/>
      <point x="419" y="438" type="curve"/>
      <point x="325" y="583" type="line"/>
      <point x="260" y="584" type="line"/>
    </contour>
  </outline>
</glyph>
<glyph name="E" format="2">
  <advance width="452"/>
  <unicode hex="0045"/>
  <outline>
    <contour>
      <point x="40" y="700" type="line"/>
      <point x="410" y="700" type="line"/>
      <point x="410" y="480" type="line"/>
      <point x="220" y="521" type="line"/>
      <point x="220" y="487.91" type="line"/>
      <point x="220" y="444" type="line"/>
      <point x="350" y="444" type="line"/>
      <point x="350" y="234" type="line"/>
      <point x="220" y="265" type="line"/>
      <point x="220" y="222.683" type="line"/>
      <point x="220" y="214.509" type="line"/>
      <point x="220" y="179" type="line"/>
      <point x="420" y="220" type="line"/>
      <point x="420" y="0" type="line"/>
      <point x="40" y="0" type="line"/>
      <point x="40" y="122.507" type="line"/>
      <point x="40" y="591.23" type="line"/>
    </contour>
  </outline>
</glyph>
<glyph name="F" format="2">
  <advance width="442"/>
  <unicode hex="0046"/>
  <outline>
    <contour>
      <point x="40" y="700" type="line"/>
      <point x="410" y="700" type="line"/>
      <point x="410" y="480" type="line"/>
      <point x="220" y="522" type="line"/>
      <point x="220" y="492.008" type="line"/>
      <point x="220" y="444" type="line"/>
      <point x="350" y="444" type="line"/>
      <point x="350" y="232" type="line"/>
      <point x="225" y="264.356" type="line"/>
      <point x="227.054" y="245.087" type="line"/>
      <point x="260" y="0" type="line"/>
      <point x="40" y="0" type="line"/>
      <point x="40" y="592.009" type="line"/>
    </contour>
  </outline>
</glyph>
<glyph name="G" format="2">
  <advance width="615"/>
  <unicode hex="0047"/>
  <outline>
    <contour>
      <point x="518" y="0" type="line"/>
      <point x="283" y="0" type="line" smooth="yes"/>
      <point x="63" y="0"/>
      <point x="45" y="239"/>
      <point x="45" y="389" type="curve"/>
      <point x="123" y="700" type="line"/>
      <point x="241" y="731"/>
      <point x="420" y="731"/>
      <point x="546" y="700" type="curve"/>
      <point x="546" y="479" type="line"/>
      <point x="303" y="546" type="line"/>
      <point x="235" y="388" type="line"/>
      <point x="235" y="224"/>
      <point x="240" y="170"/>
      <point x="343" y="170" type="curve" smooth="yes"/>
      <point x="379" y="170" type="line"/>
      <point x="397.212" y="217.36" type="line"/>
      <point x="417" y="277" type="line"/>
      <point x="298" y="227" type="line"/>
      <point x="298" y="418" type="line"/>
      <point x="404" y="439"/>
      <point x="462" y="440"/>
      <point x="580" y="414" type="curve"/>
      <point x="558.649" y="288.649" type="line"/>
    </contour>
  </outline>
</glyph>
<glyph name="H" format="2">
  <advance width="606"/>
  <unicode hex="0048"/>
  <outline>
    <contour>
      <point x="40" y="700" type="line"/>
      <point x="260" y="700" type="line"/>
      <point x="249.583" y="500" type="line"/>
      <point x="249" y="462" type="line"/>
      <point x="346" y="462" type="line"/>
      <point x="346" y="500" type="line"/>
      <point x="346" y="700" type="line"/>
      <point x="566" y="700" type="line"/>
      <point x="526" y="0" type="line"/>
      <point x="346" y="0" type="line"/>
      <point x="346" y="266" type="line"/>
      <point x="289.337" y="274.561" type="line"/>
      <point x="267.166" y="278.149" type="line"/>
      <point x="241" y="282" type="line"/>
      <point x="220" y="0" type="line"/>
      <point x="40" y="0" type="line"/>
    </contour>
  </outline>
</glyph>
<glyph name="K" format="2">
  <advance width="594"/>
  <unicode hex="004B"/>
  <outline>
    <contour>
      <point x="222" y="0" type="line"/>
      <point x="232" y="195" type="line"/>
      <point x="271" y="256" type="line"/>
      <point x="347" y="0" type="line"/>
      <point x="583" y="0" type="line"/>
      <point x="375" y="390" type="line"/>
      <point x="584" y="700" type="line"/>
      <point x="357" y="700" type="line"/>
      <point x="244" y="443" type="line"/>
      <point x="260" y="700" type="line"/>
      <point x="40" y="700" type="line"/>
      <point x="40" y="0" type="line"/>
    </contour>
  </outline>
</glyph>
<glyph name="L" format="2">
  <advance width="440"/>
  <unicode hex="004C"/>
  <outline>
    <contour>
      <point x="40" y="700" type="line"/>
      <point x="260" y="700" type="line"/>
      <point x="221.304" y="228.78" type="line"/>
      <point x="218" y="180" type="line"/>
      <point x="420" y="210" type="line"/>
      <point x="420" y="0" type="line"/>
      <point x="40" y="0" type="line"/>
      <point x="40" y="110" type="line"/>
    </contour>
  </outline>
</glyph>
<glyph name="M" format="2">
  <advance width="772"/>
  <unicode hex="004D"/>
  <outline>
    <contour>
      <point x="426" y="200" type="line"/>
      <point x="306" y="200" type="line"/>
      <point x="199.391" y="397.839" type="line"/>
      <point x="220" y="0" type="line"/>
      <point x="40" y="0" type="line"/>
      <point x="40" y="700" type="line"/>
      <point x="260" y="700" type="line"/>
      <point x="366" y="400" type="line"/>
      <point x="512" y="700" type="line"/>
      <point x="732" y="700" type="line"/>
      <point x="722" y="0" type="line"/>
      <point x="542" y="0" type="line"/>
      <point x="522" y="400" type="line"/>
    </contour>
  </outline>
</glyph>
<glyph name="N" format="2">
  <advance width="656"/>
  <unicode hex="004E"/>
  <outline>
    <contour>
      <point x="396" y="700" type="line"/>
      <point x="616" y="700" type="line"/>
      <point x="586" y="0" type="line"/>
      <point x="366" y="0" type="line"/>
      <point x="280.488" y="228.842" type="line"/>
      <point x="202" y="434" type="line"/>
      <point x="230" y="0" type="line"/>
      <point x="50" y="0" type="line"/>
      <point x="40" y="700" type="line"/>
      <point x="260" y="700" type="line"/>
      <point x="340.497" y="493.306" type="line"/>
      <point x="433" y="243" type="line"/>
    </contour>
  </outline>
</glyph>
<glyph name="O" format="2">
  <advance width="618"/>
  <unicode hex="004F"/>
  <outline>
    <contour>
      <point x="126" y="703" type="line"/>
      <point x="322" y="703" type="line" smooth="yes"/>
      <point x="542" y="703"/>
      <point x="573" y="485"/>
      <point x="573" y="294" type="curve"/>
      <point x="491" y="-3" type="line"/>
      <point x="304" y="-3" type="line" smooth="yes"/>
      <point x="84" y="-3"/>
      <point x="45" y="245"/>
      <point x="45" y="406" type="curve"/>
    </contour>
    <contour>
      <point x="263.232" y="504.322" type="line"/>
      <point x="218.637" y="385.793" type="line"/>
      <point x="218.637" y="277.24"/>
      <point x="229.199" y="195.678"/>
      <point x="328.95" y="195.678" type="curve" smooth="yes"/>
      <point x="354.182" y="195.678" type="line"/>
      <point x="399.363" y="314.207" type="line"/>
      <point x="399.363" y="415.132"/>
      <point x="395.256" y="504.322"/>
      <point x="283.182" y="504.322" type="curve" smooth="yes"/>
    </contour>
  </outline>
</glyph>
<glyph name="P" format="2">
  <advance width="646"/>
  <unicode hex="0050"/>
  <outline>
    <contour>
      <point x="242" y="364" type="line"/>
      <point x="322" y="344" type="line"/>
      <point x="389" y="345"/>
      <point x="415" y="372"/>
      <point x="415" y="463" type="curve"/>
      <point x="307" y="580" type="line"/>
      <point x="260" y="580" type="line"/>
    </contour>
    <contour>
      <point x="411" y="204" type="curve" smooth="yes"/>
      <point x="238" y="204" type="line"/>
      <point x="220" y="0" type="line"/>
      <point x="40" y="0" type="line"/>
      <point x="40" y="700" type="line"/>
      <point x="483" y="700" type="line"/>
      <point x="601" y="530" type="line"/>
      <point x="601" y="413"/>
      <point x="580" y="204"/>
    </contour>
  </outline>
</glyph>
<glyph name="Q" format="2">
  <advance width="718"/>
  <unicode hex="0051"/>
  <outline>
    <contour>
      <point x="309" y="314" type="line"/>
      <point x="519" y="314" type="line"/>
      <point x="587" y="179" type="line"/>
      <point x="673" y="220" type="line"/>
      <point x="673" y="0" type="line"/>
      <point x="576" y="0" type="line"/>
    </contour>
    <contour>
      <point x="126" y="703" type="line"/>
      <point x="322" y="703" type="line" smooth="yes"/>
      <point x="542" y="703"/>
      <point x="573" y="485"/>
      <point x="573" y="294" type="curve"/>
      <point x="491" y="-3" type="line"/>
      <point x="304" y="-3" type="line" smooth="yes"/>
      <point x="84" y="-3"/>
      <point x="45" y="245"/>
      <point x="45" y="406" type="curve"/>
    </contour>
    <contour>
      <point x="263.232" y="504.322" type="line"/>
      <point x="218.637" y="385.793" type="line"/>
      <point x="218.637" y="277.24"/>
      <point x="229.199" y="195.678"/>
      <point x="328.95" y="195.678" type="curve" smooth="yes"/>
      <point x="354.182" y="195.678" type="line"/>
      <point x="399.363" y="314.207" type="line"/>
      <point x="399.363" y="415.132"/>
      <point x="395.256" y="504.322"/>
      <point x="283.182" y="504.322" type="curve" smooth="yes"/>
    </contour>
  </outline>
</glyph>
<glyph name="R" format="2">
  <advance width="622"/>
  <unicode hex="0052"/>
  <outline>
    <contour>
      <point x="431" y="204" type="curve"/>
      <point x="431" y="204" type="line"/>
      <point x="602" y="0" type="line"/>
      <point x="375" y="0" type="line"/>
      <point x="280" y="204" type="line"/>
      <point x="238" y="205" type="line"/>
      <point x="220" y="1" type="line"/>
      <point x="40" y="1" type="line"/>
      <point x="40" y="701" type="line"/>
      <point x="483" y="700" type="line"/>
      <point x="601" y="530" type="line"/>
      <point x="601" y="395"/>
      <point x="560" y="204"/>
    </contour>
    <contour>
      <point x="242" y="365" type="line"/>
      <point x="322" y="344" type="line"/>
      <point x="399" y="345"/>
      <point x="415" y="372"/>
      <point x="415" y="463" type="curve"/>
      <point x="307" y="580" type="line"/>
      <point x="260" y="581" type="line"/>
    </contour>
  </outline>
</glyph>
<glyph name="T" format="2">
  <advance width="440"/>
  <unicode hex="0054"/>
  <outline>
    <contour>
      <point x="20" y="480" type="line"/>
      <point x="20" y="700" type="line"/>
      <point x="420" y="700" type="line"/>
      <point x="420" y="480" type="line"/>
      <point x="310" y="521" type="line"/>
      <point x="330" y="0" type="line"/>
      <point x="110" y="0" type="line"/>
      <point x="130" y="521" type="line"/>
    </contour>
  </outline>
</glyph>
<glyph name="U" format="2">
  <advance width="601"/>
  <unicode hex="0055"/>
  <outline>
    <contour>
      <point x="566" y="700" type="line"/>
      <point x="566" y="303" type="line"/>
      <point x="486" y="-3" type="line"/>
      <point x="276" y="-3" type="line" smooth="yes"/>
      <point x="59" y="-3"/>
      <point x="40" y="251"/>
      <point x="40" y="399" type="curve" smooth="yes"/>
      <point x="40" y="700" type="line"/>
      <point x="240" y="700" type="line"/>
      <point x="240" y="400" type="line" smooth="yes"/>
      <point x="240" y="258"/>
      <point x="243" y="187"/>
      <point x="296" y="187" type="curve" smooth="yes"/>
      <point x="321" y="187" type="line"/>
      <point x="366" y="301" type="line"/>
      <point x="366" y="700" type="line"/>
    </contour>
  </outline>
</glyph>
<glyph name="V" format="2">
  <advance width="599"/>
  <unicode hex="0056"/>
  <outline>
    <contour>
      <point x="193" y="0" type="line"/>
      <point x="403" y="0" type="line"/>
      <point x="579" y="700" type="line"/>
      <point x="359" y="700" type="line"/>
      <point x="299" y="190" type="line"/>
      <point x="240" y="700" type="line"/>
      <point x="20" y="700" type="line"/>
    </contour>
  </outline>
</glyph>
<glyph name="W" format="2">
  <advance width="967"/>
  <unicode hex="0057"/>
  <outline>
    <contour>
      <point x="193" y="0" type="line"/>
      <point x="403" y="0" type="line"/>
      <point x="480" y="340" type="line"/>
      <point x="560" y="0" type="line"/>
      <point x="770" y="0" type="line"/>
      <point x="947" y="700" type="line"/>
      <point x="726" y="700" type="line"/>
      <point x="666" y="190" type="line"/>
      <point x="585" y="670" type="line"/>
      <point x="375" y="670" type="line"/>
      <point x="299" y="190" type="line"/>
      <point x="240" y="700" type="line"/>
      <point x="20" y="700" type="line"/>
    </contour>
  </outline>
</glyph>
<glyph name="X" format="2">
  <advance width="577"/>
  <unicode hex="0058"/>
  <outline>
    <contour>
      <point x="359" y="0" type="line"/>
      <point x="543" y="0" type="line"/>
      <point x="418.115" y="360.351" type="line"/>
      <point x="557" y="700" type="line"/>
      <point x="333" y="700" type="line"/>
      <point x="291.347" y="497.329" type="line"/>
      <point x="245" y="700" type="line"/>
      <point x="20" y="700" type="line"/>
      <point x="159.744" y="349.612" type="line"/>
      <point x="44" y="0" type="line"/>
      <point x="228" y="0" type="line"/>
      <point x="289.531" y="209.791" type="line"/>
    </contour>
  </outline>
</glyph>
<glyph name="Y" format="2">
  <advance width="603"/>
  <unicode hex="0059"/>
  <outline>
    <contour>
      <point x="132" y="0" type="line"/>
      <point x="312" y="0" type="line"/>
      <point x="583" y="700" type="line"/>
      <point x="361" y="700" type="line"/>
      <point x="288.698" y="424.859" type="line"/>
      <point x="243" y="700" type="line"/>
      <point x="20" y="700" type="line"/>
      <point x="199" y="204" type="line"/>
    </contour>
  </outline>
</glyph>
<glyph name="Z" format="2">
  <advance width="499"/>
  <unicode hex="005A"/>
  <outline>
    <contour>
      <point x="467" y="700" type="curve"/>
      <point x="325.346" y="345.064" type="line"/>
      <point x="257" y="159" type="line"/>
      <point x="469" y="219" type="line"/>
      <point x="469" y="0" type="line"/>
      <point x="344" y="-29"/>
      <point x="147" y="-29"/>
      <point x="30" y="0" type="curve"/>
      <point x="148.962" y="350.04" type="line"/>
      <point x="210.751" y="531.85" type="line"/>
      <point x="61" y="490" type="line"/>
      <point x="61" y="700" type="line"/>
      <point x="187" y="729"/>
      <point x="350" y="729"/>
    </contour>
  </outline>
</glyph>
<glyph name="bracketleft" format="2">
  <advance width="370"/>
  <unicode hex="005B"/>
  <outline>
    <contour>
      <point x="80" y="820" type="line"/>
      <point x="80" y="770.105" type="line"/>
      <point x="80" y="-37.0686" type="line"/>
      <point x="80" y="-87" type="line"/>
      <point x="360" y="-87" type="line"/>
      <point x="360" y="123" type="line"/>
      <point x="283.334" y="100" type="line"/>
      <point x="260" y="93" type="line"/>
      <point x="260" y="640" type="line"/>
      <point x="294.22" y="629.734" type="line"/>
      <point x="360" y="610" type="line"/>
      <point x="360" y="820" type="line"/>
    </contour>
  </outline>
</glyph>
<glyph name="backslash" format="2">
  <advance width="551"/>
  <unicode hex="005C"/>
  <outline>
    <contour>
      <point x="470.348" y="0" type="line"/>
      <point x="289.348" y="0" type="line"/>
      <point x="110" y="700" type="line"/>
      <point x="331" y="700" type="line"/>
    </contour>
  </outline>
</glyph>
<glyph name="bracketright" format="2">
  <advance width="370"/>
  <unicode hex="005D"/>
  <outline>
    <contour>
      <point x="290" y="820" type="line"/>
      <point x="10" y="820" type="line"/>
      <point x="10" y="610" type="line"/>
      <point x="75.5209" y="629.656" type="line"/>
      <point x="110" y="640" type="line"/>
      <point x="110" y="93" type="line"/>
      <point x="71.6937" y="104.492" type="line"/>
      <point x="10" y="123" type="line"/>
      <point x="10" y="-87" type="line"/>
      <point x="290" y="-87" type="line"/>
      <point x="290" y="-36.182" type="line"/>
      <point x="290" y="770.829" type="line"/>
    </contour>
  </outline>
</glyph>
<glyph name="underscore" format="2">
  <advance width="380"/>
  <unicode hex="005F"/>
  <outline>
    <contour>
      <point x="30" y="-181" type="line"/>
      <point x="30" y="-1" type="line"/>
      <point x="330" y="-1" type="line"/>
      <point x="330" y="-221" type="line"/>
    </contour>
  </outline>
</glyph>
<glyph name="grave" format="2">
  <advance width="307"/>
  <unicode hex="0060"/>
  <outline>
    <contour>
      <point x="40" y="640" type="line"/>
      <point x="97" y="565" type="line"/>
      <point x="277" y="565" type="line"/>
      <point x="240" y="650" type="line"/>
      <point x="240" y="750" type="line"/>
      <point x="30" y="750" type="line"/>
    </contour>
  </outline>
</glyph>
<glyph name="b" format="2">
  <advance width="755"/>
  <unicode hex="0062"/>
  <outline>
    <contour>
      <point x="30" y="750" type="line"/>
      <point x="111.391" y="0" type="line"/>
      <point x="401.391" y="0" type="line"/>
      <point x="470.391" y="358" type="line"/>
      <point x="506.391" y="348" type="line"/>
      <point x="547.391" y="277" type="line"/>
      <point x="547.391" y="222"/>
      <point x="534.351" y="170.559"/>
      <point x="489.391" y="171" type="curve" smooth="yes"/>
      <point x="434.394" y="171.54"/>
      <point x="404.391" y="248"/>
      <point x="348.391" y="391" type="curve"/>
      <point x="321.391" y="158" type="line"/>
      <point x="333.391" y="107"/>
      <point x="427.855" y="-0.199959"/>
      <point x="542.391" y="0.0177412" type="curve" smooth="yes"/>
      <point x="680.391" y="0.279941"/>
      <point x="722.391" y="138"/>
      <point x="722.391" y="285" type="curve"/>
      <point x="664.391" y="500" type="line"/>
      <point x="556.391" y="530"/>
      <point x="417.391" y="530"/>
      <point x="312.391" y="500" type="curve"/>
      <point x="264.391" y="84" type="line"/>
      <point x="230" y="750" type="line"/>
    </contour>
  </outline>
</glyph>
<glyph name="c" format="2">
  <advance width="437"/>
  <unicode hex="0063"/>
  <outline>
    <contour>
      <point x="405" y="-5" type="line"/>
      <point x="358.47" y="-5"/>
      <point x="290.53" y="-5"/>
      <point x="244" y="-5" type="curve" smooth="yes"/>
      <point x="34" y="-5"/>
      <point x="32" y="172"/>
      <point x="32" y="279" type="curve"/>
      <point x="90" y="500" type="line"/>
      <point x="176" y="527"/>
      <point x="328" y="527"/>
      <point x="417" y="500" type="curve"/>
      <point x="417" y="291" type="line"/>
      <point x="278" y="355" type="line"/>
      <point x="237" y="279" type="line"/>
      <point x="237" y="177"/>
      <point x="258" y="175"/>
      <point x="291" y="175" type="curve"/>
      <point x="405" y="205" type="line"/>
    </contour>
  </outline>
</glyph>
<glyph name="d" format="2">
  <advance width="755"/>
  <unicode hex="0064"/>
  <outline>
    <contour>
      <point x="724.391" y="750" type="line"/>
      <point x="524.391" y="750" type="line"/>
      <point x="490" y="84" type="line"/>
      <point x="442" y="500" type="line"/>
      <point x="337" y="530"/>
      <point x="198" y="530"/>
      <point x="90" y="500" type="curve"/>
      <point x="32" y="285" type="line"/>
      <point x="32" y="138"/>
      <point x="74" y="0.279999"/>
      <point x="212" y="0.0176988" type="curve" smooth="yes"/>
      <point x="326.536" y="-0.199901"/>
      <point x="421" y="107"/>
      <point x="433" y="158" type="curve"/>
      <point x="406" y="391" type="line"/>
      <point x="350" y="248"/>
      <point x="319.997" y="171.54"/>
      <point x="265" y="171" type="curve" smooth="yes"/>
      <point x="220.04" y="170.559"/>
      <point x="207" y="222"/>
      <point x="207" y="277" type="curve"/>
      <point x="248" y="348" type="line"/>
      <point x="284" y="358" type="line"/>
      <point x="353" y="0" type="line"/>
      <point x="643" y="0" type="line"/>
    </contour>
  </outline>
</glyph>
<glyph name="e" format="2">
  <advance width="500"/>
  <unicode hex="0065"/>
  <outline>
    <contour>
      <point x="435" y="-5" type="line"/>
      <point x="264" y="-5" type="line" smooth="yes"/>
      <point x="54.1674" y="-5"/>
      <point x="32" y="172"/>
      <point x="32" y="279" type="curve"/>
      <point x="90" y="507" type="line"/>
      <point x="274" y="507" type="line" smooth="yes"/>
      <point x="462" y="507"/>
      <point x="475" y="349"/>
      <point x="475" y="201" type="curve"/>
      <point x="374" y="199" type="line"/>
      <point x="127" y="199" type="line"/>
      <point x="127" y="309" type="line"/>
      <point x="296" y="309" type="line"/>
      <point x="296" y="335"/>
      <point x="278" y="355"/>
      <point x="261" y="355" type="curve" smooth="yes"/>
      <point x="238" y="355" type="line"/>
      <point x="217" y="309" type="line"/>
      <point x="217" y="187.438"/>
      <point x="218.332" y="145"/>
      <point x="301" y="145" type="curve"/>
      <point x="435" y="175" type="line"/>
    </contour>
  </outline>
</glyph>
<glyph name="f" format="2">
  <advance width="450"/>
  <unicode hex="0066"/>
  <outline>
    <contour>
      <point x="25" y="0" type="line"/>
      <point x="245" y="0" type="line"/>
      <point x="220.704" y="347.089" type="line"/>
      <point x="305.8" y="323.95" type="line"/>
      <point x="417" y="291" type="line"/>
      <point x="417" y="500" type="line"/>
      <point x="372.75" y="509.25"/>
      <point x="348.15" y="512.95"/>
      <point x="311.1" y="513.25" type="curve" smooth="yes"/>
      <point x="282.6" y="513.5"/>
      <point x="263.7" y="509.75"/>
      <point x="210" y="500" type="curve"/>
      <point x="221.938" y="574.613" type="line"/>
      <point x="351.324" y="555.459" type="line"/>
      <point x="449" y="541" type="line"/>
      <point x="449.05" y="750" type="line"/>
      <point x="398.1" y="761.65"/>
      <point x="305.7" y="767.75"/>
      <point x="244.3" y="768" type="curve" smooth="yes"/>
      <point x="185" y="768.2"/>
      <point x="94.85" y="762.05"/>
      <point x="39" y="750" type="curve"/>
      <point x="25" y="500" type="line"/>
    </contour>
  </outline>
</glyph>
<glyph name="g" format="2">
  <advance width="731"/>
  <unicode hex="0067"/>
  <outline>
    <contour>
      <point x="502" y="-226" type="curve"/>
      <point x="633" y="0" type="line"/>
      <point x="363" y="0" type="line"/>
      <point x="377" y="-79" type="line"/>
      <point x="126" y="-26" type="line"/>
      <point x="126" y="-226" type="line"/>
      <point x="235" y="-257"/>
      <point x="396" y="-257"/>
    </contour>
    <contour>
      <point x="701" y="500" type="line"/>
      <point x="501" y="500" type="line"/>
      <point x="490" y="84" type="line"/>
      <point x="442" y="500" type="line"/>
      <point x="337" y="530"/>
      <point x="198" y="530"/>
      <point x="90" y="500" type="curve"/>
      <point x="32" y="285" type="line"/>
      <point x="32" y="138"/>
      <point x="74" y="0.279907"/>
      <point x="212" y="0.0177072" type="curve" smooth="yes"/>
      <point x="326.536" y="-0.199993"/>
      <point x="421" y="107"/>
      <point x="433" y="158" type="curve"/>
      <point x="406" y="391" type="line"/>
      <point x="350" y="248"/>
      <point x="319.997" y="171.54"/>
      <point x="265" y="171" type="curve" smooth="yes"/>
      <point x="220.04" y="170.559"/>
      <point x="207" y="222"/>
      <point x="207" y="277" type="curve"/>
      <point x="248" y="348" type="line"/>
      <point x="284" y="358" type="line"/>
      <point x="363" y="0" type="line"/>
      <point x="633" y="0" type="line"/>
    </contour>
  </outline>
</glyph>
<glyph name="h" format="2">
  <advance width="767"/>
  <unicode hex="0068"/>
  <outline>
    <contour>
      <point x="25" y="750" type="line"/>
      <point x="113" y="0" type="line"/>
      <point x="403.202" y="0" type="line"/>
      <point x="472" y="348" type="line"/>
      <point x="522" y="328" type="line"/>
      <point x="519" y="284" type="line"/>
      <point x="498" y="0" type="line"/>
      <point x="718" y="0" type="line"/>
      <point x="699" y="284" type="line"/>
      <point x="737" y="500" type="line"/>
      <point x="628" y="530"/>
      <point x="419" y="530"/>
      <point x="313" y="500" type="curve"/>
      <point x="267" y="184" type="line"/>
      <point x="235" y="750" type="line"/>
    </contour>
  </outline>
</glyph>
<glyph name="i" format="2">
  <advance width="318"/>
  <unicode hex="0069"/>
  <outline>
    <contour>
      <point x="276" y="500" type="line"/>
      <point x="238" y="284" type="line"/>
      <point x="257" y="0" type="line"/>
      <point x="37" y="0" type="line"/>
      <point x="53" y="284" type="line"/>
      <point x="65" y="500" type="line"/>
    </contour>
    <contour>
      <point x="264" y="585" type="line"/>
      <point x="288" y="750" type="line"/>
      <point x="77" y="750" type="line"/>
      <point x="69" y="585" type="line"/>
    </contour>
  </outline>
</glyph>
<glyph name="j" format="2">
  <advance width="463"/>
  <unicode hex="006A"/>
  <outline>
    <contour>
      <point x="409" y="585" type="line"/>
      <point x="433" y="750" type="line"/>
      <point x="222" y="750" type="line"/>
      <point x="214" y="585" type="line"/>
    </contour>
    <contour>
      <point x="30" y="-226" type="curve"/>
      <point x="30" y="-17" type="line"/>
      <point x="192" y="-69" type="line"/>
      <point x="198" y="284" type="line"/>
      <point x="210" y="500" type="line"/>
      <point x="421" y="500" type="line"/>
      <point x="383" y="284" type="line"/>
      <point x="417" y="-226" type="line"/>
      <point x="311" y="-257"/>
      <point x="139" y="-257"/>
    </contour>
  </outline>
</glyph>
<glyph name="k" format="2">
  <advance width="660"/>
  <unicode hex="006B"/>
  <outline>
    <contour>
      <point x="25.5756" y="750" type="line"/>
      <point x="106" y="0" type="line"/>
      <point x="345" y="0" type="line"/>
      <point x="383" y="320" type="line"/>
      <point x="430" y="0" type="line"/>
      <point x="640" y="0" type="line"/>
      <point x="502" y="348" type="line"/>
      <point x="547.971" y="329.035" type="line"/>
      <point x="629" y="294" type="line"/>
      <point x="629" y="500" type="line"/>
      <point x="573.182" y="515.363"/>
      <point x="497.067" y="522.858"/>
      <point x="451.12" y="522.487" type="curve" smooth="yes"/>
      <point x="407.343" y="522.133"/>
      <point x="323.718" y="514.637"/>
      <point x="272" y="500" type="curve"/>
      <point x="226" y="184" type="line"/>
      <point x="206.044" y="749.975" type="line"/>
    </contour>
  </outline>
</glyph>
<glyph name="l" format="2">
  <advance width="278"/>
  <unicode hex="006C"/>
  <outline>
    <contour>
      <point x="248" y="750" type="line"/>
      <point x="210" y="534" type="line"/>
      <point x="245" y="0" type="line"/>
      <point x="25" y="0" type="line"/>
      <point x="25" y="534" type="line"/>
      <point x="37" y="750" type="line"/>
    </contour>
  </outline>
</glyph>
<glyph name="m" format="2">
  <advance width="990"/>
  <unicode hex="006D"/>
  <outline>
    <contour>
      <point x="30" y="500" type="line"/>
      <point x="111" y="0" type="line"/>
      <point x="391" y="0" type="line"/>
      <point x="456" y="348.222" type="line"/>
      <point x="472.956" y="340.922" type="line"/>
      <point x="479.504" y="338" type="line"/>
      <point x="477" y="294" type="line"/>
      <point x="456" y="0" type="line"/>
      <point x="656" y="0" type="line"/>
      <point x="707" y="284" type="line"/>
      <point x="710" y="299.13" type="line"/>
      <point x="721" y="348.222" type="line"/>
      <point x="745" y="338" type="line"/>
      <point x="737" y="284" type="line"/>
      <point x="721" y="0" type="line"/>
      <point x="941" y="0" type="line"/>
      <point x="922" y="284" type="line"/>
      <point x="960" y="500" type="line"/>
      <point x="864.357" y="526.324"/>
      <point x="693.102" y="529.55"/>
      <point x="606.467" y="509.677" type="curve"/>
      <point x="565.737" y="518.81"/>
      <point x="489.639" y="522.904"/>
      <point x="454.171" y="522.374" type="curve" smooth="yes"/>
      <point x="410.335" y="521.718"/>
      <point x="337.462" y="513.999"/>
      <point x="288" y="500" type="curve"/>
      <point x="250" y="184" type="line"/>
      <point x="250" y="500" type="line"/>
    </contour>
  </outline>
</glyph>
<glyph name="n" format="2">
  <advance width="742"/>
  <unicode hex="006E"/>
  <outline>
    <contour>
      <point x="30" y="500" type="line"/>
      <point x="88" y="0" type="line"/>
      <point x="378" y="0" type="line"/>
      <point x="447" y="348" type="line"/>
      <point x="497" y="328" type="line"/>
      <point x="494" y="284" type="line"/>
      <point x="473" y="0" type="line"/>
      <point x="693" y="0" type="line"/>
      <point x="674" y="284" type="line"/>
      <point x="712" y="500" type="line"/>
      <point x="603" y="530"/>
      <point x="394" y="530"/>
      <point x="288" y="500" type="curve"/>
      <point x="242" y="184" type="line"/>
      <point x="230" y="500" type="line"/>
    </contour>
  </outline>
</glyph>
<glyph name="o" format="2">
  <advance width="526"/>
  <unicode hex="006F"/>
  <outline>
    <contour>
      <point x="90" y="507" type="line"/>
      <point x="283" y="507" type="line" smooth="yes"/>
      <point x="442" y="507"/>
      <point x="494" y="349"/>
      <point x="494" y="211" type="curve"/>
      <point x="435" y="-5" type="line"/>
      <point x="234" y="-5" type="line" smooth="yes"/>
      <point x="44" y="-5"/>
      <point x="32" y="172"/>
      <point x="32" y="279" type="curve"/>
    </contour>
    <contour>
      <point x="230.784" y="341.68" type="line"/>
      <point x="198.386" y="265.426" type="line"/>
      <point x="198.386" y="207.721"/>
      <point x="208.901" y="160.32"/>
      <point x="257.122" y="160.32" type="curve" smooth="yes"/>
      <point x="297.731" y="160.32" type="line"/>
      <point x="327.614" y="230.391" type="line"/>
      <point x="327.614" y="289.127"/>
      <point x="321.947" y="341.68"/>
      <point x="266.513" y="341.68" type="curve" smooth="yes"/>
    </contour>
  </outline>
</glyph>
<glyph name="p" format="2">
  <advance width="726"/>
  <unicode hex="0070"/>
  <outline>
    <contour>
      <point x="25" y="500" type="line"/>
      <point x="73.3863" y="-250.29" type="line"/>
      <point x="363.386" y="-250.29" type="line"/>
      <point x="442" y="358" type="line"/>
      <point x="478" y="348" type="line"/>
      <point x="519" y="277" type="line"/>
      <point x="519" y="222"/>
      <point x="505.96" y="170.559"/>
      <point x="461" y="171" type="curve" smooth="yes"/>
      <point x="406.003" y="171.54"/>
      <point x="376" y="248"/>
      <point x="320" y="391" type="curve"/>
      <point x="293" y="158" type="line"/>
      <point x="305" y="107"/>
      <point x="399.464" y="-0.199997"/>
      <point x="514" y="0.0177031" type="curve" smooth="yes"/>
      <point x="652" y="0.279903"/>
      <point x="694" y="138"/>
      <point x="694" y="285" type="curve"/>
      <point x="636" y="500" type="line"/>
      <point x="528" y="530"/>
      <point x="389" y="530"/>
      <point x="284" y="500" type="curve"/>
      <point x="222.386" y="-98.2903" type="line"/>
      <point x="225" y="500" type="line"/>
    </contour>
  </outline>
</glyph>
<glyph name="q" format="2">
  <advance width="731"/>
  <unicode hex="0071"/>
  <outline>
    <contour>
      <point x="701" y="500" type="line"/>
      <point x="501" y="500" type="line"/>
      <point x="503.614" y="-98.2903" type="line"/>
      <point x="442" y="500" type="line"/>
      <point x="337" y="530"/>
      <point x="198" y="530"/>
      <point x="90" y="500" type="curve"/>
      <point x="32" y="285" type="line"/>
      <point x="32" y="138"/>
      <point x="74" y="0.279953"/>
      <point x="212" y="0.017753" type="curve" smooth="yes"/>
      <point x="326.536" y="-0.199947"/>
      <point x="421" y="107"/>
      <point x="433" y="158" type="curve"/>
      <point x="406" y="391" type="line"/>
      <point x="350" y="248"/>
      <point x="319.997" y="171.54"/>
      <point x="265" y="171" type="curve" smooth="yes"/>
      <point x="220.04" y="170.559"/>
      <point x="207" y="222"/>
      <point x="207" y="277" type="curve"/>
      <point x="248" y="348" type="line"/>
      <point x="284" y="358" type="line"/>
      <point x="362.614" y="-250.29" type="line"/>
      <point x="652.614" y="-250.29" type="line"/>
    </contour>
  </outline>
</glyph>
<glyph name="r" format="2">
  <advance width="516"/>
  <unicode hex="0072"/>
  <outline>
    <contour>
      <point x="30" y="500" type="line"/>
      <point x="118" y="0" type="line"/>
      <point x="338" y="0" type="line"/>
      <point x="385.882" y="340.833" type="line"/>
      <point x="414.821" y="332.972" type="line"/>
      <point x="526" y="300" type="line"/>
      <point x="526" y="509" type="line"/>
      <point x="482.985" y="518.396"/>
      <point x="446.727" y="522.398"/>
      <point x="409.58" y="522.499" type="curve" smooth="yes"/>
      <point x="374.987" y="522.593"/>
      <point x="317.687" y="514.911"/>
      <point x="268" y="500" type="curve"/>
      <point x="222" y="184" type="line"/>
      <point x="210" y="500" type="line"/>
    </contour>
  </outline>
</glyph>
<glyph name="s" format="2">
  <advance width="520"/>
  <unicode hex="0073"/>
  <outline>
    <contour>
      <point x="34" y="0" type="line"/>
      <point x="154" y="-34"/>
      <point x="325" y="-34"/>
      <point x="429" y="0" type="curve"/>
      <point x="487" y="228" type="line"/>
      <point x="227" y="318" type="line"/>
      <point x="242" y="358" type="line"/>
      <point x="459" y="290" type="line"/>
      <point x="459" y="500" type="line"/>
      <point x="369" y="526"/>
      <point x="177" y="526"/>
      <point x="93" y="500" type="curve"/>
      <point x="33" y="270" type="line"/>
      <point x="295" y="148" type="line"/>
      <point x="279.5" y="108.21" type="line"/>
      <point x="34" y="220" type="line"/>
    </contour>
  </outline>
</glyph>
<glyph name="t" format="2">
  <advance width="412"/>
  <unicode hex="0074"/>
  <outline>
    <contour>
      <point x="247" y="700" type="line"/>
      <point x="210" y="500" type="line"/>
      <point x="245" y="0" type="line"/>
      <point x="25" y="0" type="line"/>
      <point x="25" y="500" type="line"/>
      <point x="36" y="700" type="line"/>
    </contour>
    <contour>
      <point x="210" y="500.429" type="line"/>
      <point x="263.578" y="510.151"/>
      <point x="283.36" y="513.109"/>
      <point x="311.097" y="513.248" type="curve" smooth="yes"/>
      <point x="338.31" y="513.385"/>
      <point x="372.985" y="509.397"/>
      <point x="417" y="500" type="curve"/>
      <point x="417" y="291.044" type="line"/>
      <point x="305.821" y="323.972" type="line"/>
      <point x="210" y="350" type="line"/>
    </contour>
  </outline>
</glyph>
<glyph name="u" format="2">
  <advance width="742"/>
  <unicode hex="0075"/>
  <outline>
    <contour>
      <point x="712" y="0" type="line"/>
      <point x="654" y="500" type="line"/>
      <point x="364" y="500" type="line"/>
      <point x="295" y="152" type="line"/>
      <point x="245" y="172" type="line"/>
      <point x="248" y="216" type="line"/>
      <point x="269" y="500" type="line"/>
      <point x="49" y="500" type="line"/>
      <point x="68" y="216" type="line"/>
      <point x="30" y="0" type="line"/>
      <point x="139" y="-30"/>
      <point x="348" y="-30"/>
      <point x="454" y="0" type="curve"/>
      <point x="500" y="316" type="line"/>
      <point x="512" y="0" type="line"/>
    </contour>
  </outline>
</glyph>
<glyph name="v" format="2">
  <advance width="751"/>
  <unicode hex="0076"/>
  <outline>
    <contour>
      <point x="20" y="216" type="line"/>
      <point x="220" y="216" type="line"/>
      <point x="218" y="386" type="line"/>
      <point x="267.459" y="225.292" type="line"/>
      <point x="334" y="0" type="line"/>
      <point x="554" y="0" type="line"/>
      <point x="649.631" y="270.143" type="line"/>
      <point x="731" y="500" type="line"/>
      <point x="521" y="500" type="line"/>
      <point x="477.002" y="292.422" type="line"/>
      <point x="450" y="170" type="line"/>
      <point x="424.473" y="291.436" type="line"/>
      <point x="383" y="500" type="line"/>
      <point x="113" y="500" type="line"/>
    </contour>
  </outline>
  <guideline angle="90" x="-649" y="0"/>
</glyph>
<glyph name="w" format="2">
  <advance width="891"/>
  <unicode hex="0077"/>
  <outline>
    <contour>
      <point x="-20" y="216" type="line"/>
      <point x="180" y="216" type="line"/>
      <point x="180" y="386" type="line"/>
      <point x="206.247" y="268.832" type="line"/>
      <point x="263" y="0" type="line"/>
      <point x="464" y="0" type="line"/>
      <point x="492.677" y="165.599" type="line"/>
      <point x="509" y="256" type="line"/>
      <point x="522.189" y="166.199" type="line"/>
      <point x="543" y="0" type="line"/>
      <point x="743" y="0" type="line"/>
      <point x="811.208" y="270.248" type="line"/>
      <point x="871" y="500" type="line"/>
      <point x="661" y="500" type="line"/>
      <point x="655.378" y="271.889" type="line"/>
      <point x="653" y="178" type="line"/>
      <point x="644.181" y="270.357" type="line"/>
      <point x="624" y="500" type="line"/>
      <point x="394" y="500" type="line"/>
      <point x="370.81" y="270.358" type="line"/>
      <point x="360" y="170" type="line"/>
      <point x="358.373" y="268.831" type="line"/>
      <point x="355" y="500" type="line"/>
      <point x="85" y="501" type="line"/>
    </contour>
  </outline>
</glyph>
<glyph name="x" format="2">
  <advance width="711"/>
  <unicode hex="0078"/>
  <outline>
    <contour>
      <point x="20" y="284" type="line"/>
      <point x="210" y="284" type="line"/>
      <point x="207" y="326" type="line"/>
      <point x="256" y="251" type="line"/>
      <point x="29" y="0" type="line"/>
      <point x="249" y="0" type="line"/>
      <point x="347.427" y="144.81" type="line"/>
      <point x="441" y="0" type="line"/>
      <point x="626" y="0" type="line"/>
      <point x="691" y="216" type="line"/>
      <point x="501" y="216" type="line"/>
      <point x="494" y="171" type="line"/>
      <point x="455" y="252" type="line"/>
      <point x="671" y="500" type="line"/>
      <point x="452" y="500" type="line"/>
      <point x="358" y="352" type="line"/>
      <point x="260" y="500" type="line"/>
      <point x="75" y="500" type="line"/>
    </contour>
  </outline>
</glyph>
<glyph name="y" format="2">
  <advance width="713"/>
  <unicode hex="0079"/>
  <outline>
    <contour>
      <point x="20" y="216" type="line"/>
      <point x="220" y="216" type="line"/>
      <point x="230" y="386" type="line"/>
      <point x="256.532" y="267.688" type="line"/>
      <point x="326" y="-4" type="line"/>
      <point x="289" y="-79" type="line"/>
      <point x="107" y="-17" type="line"/>
      <point x="107" y="-226" type="line"/>
      <point x="197" y="-252"/>
      <point x="353" y="-252"/>
      <point x="437" y="-226" type="curve"/>
      <point x="608.921" y="261.557" type="line"/>
      <point x="693" y="500" type="line"/>
      <point x="478" y="500" type="line"/>
      <point x="443.649" y="270.237" type="line"/>
      <point x="429" y="159" type="line"/>
      <point x="412.526" y="271.837" type="line"/>
      <point x="378" y="500" type="line"/>
      <point x="118" y="500" type="line"/>
    </contour>
  </outline>
</glyph>
<glyph name="z" format="2">
  <advance width="495"/>
  <unicode hex="007A"/>
  <outline>
    <contour>
      <point x="460" y="500" type="curve"/>
      <point x="342.024" y="251.127" type="line"/>
      <point x="297" y="157" type="line"/>
      <point x="449" y="220" type="line"/>
      <point x="449" y="0" type="line"/>
      <point x="329" y="-31"/>
      <point x="149" y="-31"/>
      <point x="35" y="0" type="curve"/>
      <point x="162.389" y="261.856" type="line"/>
      <point x="201" y="344" type="line"/>
      <point x="64" y="291" type="line"/>
      <point x="64" y="500" type="line"/>
      <point x="184" y="531"/>
      <point x="346" y="531"/>
    </contour>
  </outline>
</glyph>
<glyph name="braceleft" format="2">
  <advance width="461"/>
  <unicode hex="007B"/>
  <outline>
    <contour>
      <point x="160" y="770" type="line"/>
      <point x="160" y="510.309" type="line"/>
      <point x="40" y="439.642" type="line"/>
      <point x="40" y="292.729" type="line"/>
      <point x="160" y="223.213" type="line"/>
      <point x="160" y="-37" type="line"/>
      <point x="159.784" y="-87" type="line"/>
      <point x="440" y="-87" type="line"/>
      <point x="440.021" y="123" type="line"/>
      <point x="363.334" y="100.15" type="line"/>
      <point x="339.915" y="93" type="line"/>
      <point x="340" y="295.385" type="line"/>
      <point x="219" y="365.881" type="line"/>
      <point x="219" y="368.421" type="line"/>
      <point x="340" y="436.872" type="line"/>
      <point x="340" y="640" type="line"/>
      <point x="373.633" y="629.91" type="line"/>
      <point x="440" y="610" type="line"/>
      <point x="440" y="820" type="line"/>
      <point x="160.377" y="820" type="line"/>
    </contour>
  </outline>
</glyph>
<glyph name="braceright" format="2">
  <advance width="461"/>
  <unicode hex="007D"/>
  <outline>
    <contour>
      <point x="300.021" y="770" type="line"/>
      <point x="299.644" y="820" type="line"/>
      <point x="20.0207" y="820" type="line"/>
      <point x="20.0207" y="610" type="line"/>
      <point x="86.3873" y="629.91" type="line"/>
      <point x="120.021" y="640" type="line"/>
      <point x="120.021" y="436.872" type="line"/>
      <point x="241.021" y="368.421" type="line"/>
      <point x="241.021" y="365.881" type="line"/>
      <point x="120.021" y="295.385" type="line"/>
      <point x="120.106" y="93" type="line"/>
      <point x="96.6866" y="100.15" type="line"/>
      <point x="20" y="123" type="line"/>
      <point x="20.0207" y="-87" type="line"/>
      <point x="300.237" y="-87" type="line"/>
      <point x="300.021" y="-37" type="line"/>
      <point x="300.021" y="223.213" type="line"/>
      <point x="420.021" y="292.729" type="line"/>
      <point x="420.021" y="439.642" type="line"/>
      <point x="300.021" y="510.309" type="line"/>
    </contour>
  </outline>
</glyph>
<glyph name="asciitilde" format="2">
  <advance width="360"/>
  <unicode hex="007E"/>
  <outline>
    <contour>
      <point x="50" y="143" type="line"/>
      <point x="125" y="184.101" type="line"/>
      <point x="225" y="136" type="line"/>
      <point x="300" y="177" type="line"/>
      <point x="300" y="330.318" type="line"/>
      <point x="225" y="289.318" type="line"/>
      <point x="124.821" y="337.318" type="line"/>
      <point x="50" y="296.318" type="line"/>
    </contour>
  </outline>
</glyph>
<glyph name="exclamdown" format="2">
  <advance width="400"/>
  <unicode hex="00A1"/>
  <outline>
    <contour>
      <point x="140" y="500" type="line"/>
      <point x="140" y="370" type="line"/>
      <point x="320" y="370" type="line"/>
      <point x="320" y="500" type="line"/>
    </contour>
    <contour>
      <point x="320" y="320" type="line"/>
      <point x="320" y="-200" type="line"/>
      <point x="100" y="-200" type="line"/>
      <point x="140" y="320" type="line"/>
    </contour>
  </outline>
</glyph>
<glyph name="dieresis" format="2">
  <advance width="450"/>
  <unicode hex="00A8"/>
  <outline>
    <contour>
      <point x="200" y="750" type="line"/>
      <point x="210" y="880" type="line"/>
      <point x="30" y="880" type="line"/>
      <point x="30" y="750" type="line"/>
    </contour>
    <contour>
      <point x="410" y="750" type="line"/>
      <point x="420" y="880" type="line"/>
      <point x="240" y="880" type="line"/>
      <point x="240" y="750" type="line"/>
    </contour>
  </outline>
</glyph>
<glyph name="guillemotleft" format="2">
  <advance width="797"/>
  <unicode hex="00AB"/>
  <outline>
    <contour>
      <point x="203" y="460" type="line"/>
      <point x="40" y="265.452" type="line"/>
      <point x="203" y="70" type="line"/>
      <point x="440" y="70" type="line"/>
      <point x="237" y="265.453" type="line"/>
      <point x="440" y="460" type="line"/>
    </contour>
    <contour>
      <point x="500" y="460" type="line"/>
      <point x="337" y="265.452" type="line"/>
      <point x="500" y="70" type="line"/>
      <point x="737" y="70" type="line"/>
      <point x="534" y="265.453" type="line"/>
      <point x="737" y="460" type="line"/>
    </contour>
  </outline>
</glyph>
<glyph name="degree" format="2">
  <advance width="311"/>
  <unicode hex="00B0"/>
  <outline>
    <contour>
      <point x="20" y="624.629" type="curve" smooth="yes"/>
      <point x="20" y="556.308"/>
      <point x="75.7234" y="500"/>
      <point x="145.001" y="500" type="curve" smooth="yes"/>
      <point x="214.279" y="500"/>
      <point x="270.002" y="556.308"/>
      <point x="270.002" y="624.629" type="curve" smooth="yes"/>
      <point x="270.002" y="693.701"/>
      <point x="214.279" y="750.009"/>
      <point x="145.001" y="750.009" type="curve" smooth="yes"/>
      <point x="75.7234" y="750.009"/>
      <point x="20" y="693.701"/>
    </contour>
    <contour>
      <point x="120.015" y="624.94" type="curve" smooth="yes"/>
      <point x="120.015" y="638.755"/>
      <point x="131.159" y="650.016"/>
      <point x="145.015" y="650.016" type="curve" smooth="yes"/>
      <point x="158.87" y="650.016"/>
      <point x="170.015" y="638.755"/>
      <point x="170.015" y="624.94" type="curve" smooth="yes"/>
      <point x="170.015" y="611.276"/>
      <point x="158.87" y="600.015"/>
      <point x="145.015" y="600.015" type="curve" smooth="yes"/>
      <point x="131.159" y="600.015"/>
      <point x="120.015" y="611.276"/>
    </contour>
  </outline>
</glyph>
<glyph name="acute" format="2">
  <advance width="307"/>
  <unicode hex="00B4"/>
  <outline>
    <contour>
      <point x="267" y="640" type="line"/>
      <point x="277" y="750" type="line"/>
      <point x="67" y="750" type="line"/>
      <point x="67" y="650" type="line"/>
      <point x="30" y="565" type="line"/>
      <point x="210" y="565" type="line"/>
    </contour>
  </outline>
</glyph>
<glyph name="periodcentered" format="2">
  <advance width="350"/>
  <unicode hex="00B7"/>
  <outline>
    <contour>
      <point x="270" y="178" type="line"/>
      <point x="270" y="328" type="line"/>
      <point x="80" y="328" type="line"/>
      <point x="80" y="188" type="line"/>
    </contour>
  </outline>
</glyph>
<glyph name="cedilla" format="2">
  <advance width="287"/>
  <unicode hex="00B8"/>
  <outline>
    <contour>
      <point x="257" y="-130" type="line"/>
      <point x="267" y="0" type="line"/>
      <point x="57" y="0" type="line"/>
      <point x="57" y="-120" type="line"/>
      <point x="20" y="-215" type="line"/>
      <point x="200" y="-215" type="line"/>
    </contour>
  </outline>
</glyph>
<glyph name="guillemotright" format="2">
  <advance width="797"/>
  <unicode hex="00BB"/>
  <outline>
    <contour>
      <point x="594" y="460" type="line"/>
      <point x="357" y="460" type="line"/>
      <point x="560" y="265.453" type="line"/>
      <point x="357" y="70" type="line"/>
      <point x="594" y="70" type="line"/>
      <point x="757" y="265.452" type="line"/>
    </contour>
    <contour>
      <point x="297" y="460" type="line"/>
      <point x="60" y="460" type="line"/>
      <point x="263" y="265.453" type="line"/>
      <point x="60" y="70" type="line"/>
      <point x="297" y="70" type="line"/>
      <point x="460" y="265.452" type="line"/>
    </contour>
  </outline>
</glyph>
<glyph name="questiondown" format="2">
  <advance width="481"/>
  <unicode hex="00BF"/>
  <outline>
    <contour>
      <point x="400.053" y="320" type="line"/>
      <point x="400.053" y="162.401" type="line"/>
      <point x="349.253" y="95.3388"/>
      <point x="270.898" y="37.3967"/>
      <point x="269.801" y="-13.8524" type="curve"/>
      <point x="420.053" y="20.0599" type="line"/>
      <point x="420.053" y="-200" type="line"/>
      <point x="200.095" y="-200"/>
      <point x="80.0971" y="-191"/>
      <point x="80.0454" y="-59" type="curve" smooth="yes"/>
      <point x="80.0104" y="30.2555"/>
      <point x="174.253" y="121.338"/>
      <point x="220.053" y="188.401" type="curve"/>
      <point x="220.053" y="319.999" type="line"/>
    </contour>
    <contour>
      <point x="221.053" y="500" type="line"/>
      <point x="221.053" y="370" type="line"/>
      <point x="401.053" y="370" type="line"/>
      <point x="401.053" y="500" type="line"/>
    </contour>
  </outline>
</glyph>
<glyph name="AE" format="2">
  <advance width="861"/>
  <unicode hex="00C6"/>
  <outline>
    <contour>
      <point x="449" y="700" type="line"/>
      <point x="449" y="591.23" type="line"/>
      <point x="449" y="122.507" type="line"/>
      <point x="449" y="0" type="line"/>
      <point x="829" y="0" type="line"/>
      <point x="829" y="220" type="line"/>
      <point x="629" y="179" type="line"/>
      <point x="629" y="214.509" type="line"/>
      <point x="629" y="222.683" type="line"/>
      <point x="629" y="265" type="line"/>
      <point x="759" y="234" type="line"/>
      <point x="759" y="444" type="line"/>
      <point x="629" y="444" type="line"/>
      <point x="629" y="487.91" type="line"/>
      <point x="629" y="521" type="line"/>
      <point x="819" y="480" type="line"/>
      <point x="819" y="700" type="line"/>
    </contour>
    <contour>
      <point x="449" y="700" type="line"/>
      <point x="20" y="0" type="line"/>
      <point x="240" y="0" type="line"/>
      <point x="309" y="151" type="line"/>
      <point x="449" y="117" type="line"/>
      <point x="449" y="0" type="line"/>
      <point x="629" y="0" type="line"/>
      <point x="629" y="551" type="line"/>
      <point x="629" y="700" type="line"/>
    </contour>
    <contour>
      <point x="371" y="311" type="line"/>
      <point x="449" y="454.834" type="line"/>
      <point x="449" y="409.523" type="line"/>
      <point x="449" y="311" type="line"/>
    </contour>
  </outline>
</glyph>
<glyph name="Eth" format="2">
  <advance width="699"/>
  <unicode hex="00D0"/>
  <outline>
    <component base="D" xOffset="43"/>
    <contour>
      <point x="40" y="277" type="line"/>
      <point x="40" y="457" type="line"/>
      <point x="340" y="457" type="line"/>
      <point x="340" y="237" type="line"/>
    </contour>
  </outline>
</glyph>
<glyph name="multiply" format="2">
  <advance width="601"/>
  <unicode hex="00D7"/>
  <outline>
    <contour>
      <point x="490.643" y="123.839" type="line"/>
      <point x="363.364" y="-3.44071" type="line"/>
      <point x="80.5683" y="279.355" type="line"/>
      <point x="236.132" y="434.919" type="line"/>
    </contour>
    <contour>
      <point x="209.154" y="6.22654" type="line"/>
      <point x="81.875" y="133.506" type="line"/>
      <point x="365.384" y="417.015" type="line"/>
      <point x="520.947" y="261.451" type="line"/>
    </contour>
  </outline>
  <guideline angle="0" x="0" y="691"/>
</glyph>
<glyph name="Thorn" format="2">
  <advance width="637"/>
  <unicode hex="00DE"/>
  <outline>
    <contour>
      <point x="402" y="98.6392" type="curve" smooth="yes"/>
      <point x="229" y="99" type="line"/>
      <point x="220" y="0" type="line"/>
      <point x="40" y="0" type="line"/>
      <point x="40" y="699.557" type="line"/>
      <point x="260" y="700" type="line"/>
      <point x="255.055" y="595" type="line"/>
      <point x="474" y="595" type="line"/>
      <point x="591.83" y="425" type="line"/>
      <point x="591.83" y="308"/>
      <point x="571" y="98.2867"/>
    </contour>
    <contour>
      <point x="233" y="249" type="line"/>
      <point x="313" y="229" type="line"/>
      <point x="380" y="230"/>
      <point x="406" y="257"/>
      <point x="406" y="348" type="curve"/>
      <point x="298" y="465" type="line"/>
      <point x="247" y="465" type="line"/>
    </contour>
  </outline>
</glyph>
<glyph name="ae" format="2">
  <advance width="949"/>
  <unicode hex="00E6"/>
  <outline>
    <contour>
      <point x="668" y="507" type="line"/>
      <point x="501" y="507" type="line"/>
      <point x="490" y="84" type="line"/>
      <point x="442" y="500" type="line"/>
      <point x="337" y="530"/>
      <point x="198" y="530"/>
      <point x="90" y="500" type="curve"/>
      <point x="32" y="285" type="line"/>
      <point x="32" y="138"/>
      <point x="74" y="0.279999"/>
      <point x="212" y="0.0176988" type="curve" smooth="yes"/>
      <point x="326.536" y="-0.199901"/>
      <point x="421" y="107"/>
      <point x="433" y="158" type="curve"/>
      <point x="406" y="391" type="line"/>
      <point x="350" y="248"/>
      <point x="319.997" y="171.54"/>
      <point x="265" y="171" type="curve" smooth="yes"/>
      <point x="220.04" y="170.559"/>
      <point x="207" y="222"/>
      <point x="207" y="277" type="curve"/>
      <point x="248" y="348" type="line"/>
      <point x="284" y="358" type="line"/>
      <point x="353" y="0" type="line"/>
      <point x="643" y="0" type="line"/>
    </contour>
    <contour>
      <point x="884" y="0" type="line"/>
      <point x="884" y="175" type="line"/>
      <point x="750" y="145" type="line"/>
      <point x="667.332" y="145"/>
      <point x="666" y="187.438"/>
      <point x="666" y="309" type="curve"/>
      <point x="667" y="355" type="line"/>
      <point x="710" y="355" type="line" smooth="yes"/>
      <point x="727" y="355"/>
      <point x="745" y="335"/>
      <point x="745" y="309" type="curve"/>
      <point x="576" y="309" type="line"/>
      <point x="576" y="199" type="line"/>
      <point x="823" y="199" type="line"/>
      <point x="924" y="201" type="line"/>
      <point x="924" y="349"/>
      <point x="911" y="507"/>
      <point x="723" y="507" type="curve" smooth="yes"/>
      <point x="539" y="507" type="line"/>
      <point x="495" y="279" type="line"/>
      <point x="495" y="0" type="line"/>
    </contour>
  </outline>
</glyph>
<glyph name="divide" format="2">
  <advance width="350"/>
  <unicode hex="00F7"/>
  <outline>
    <component base="minus" yOffset="54"/>
    <contour>
      <point x="258" y="-10" type="line"/>
      <point x="88" y="-10" type="line"/>
      <point x="88" y="120" type="line"/>
      <point x="268" y="120" type="line"/>
    </contour>
    <contour>
      <point x="258" y="392" type="line"/>
      <point x="88" y="392" type="line"/>
      <point x="88" y="522" type="line"/>
      <point x="268" y="522" type="line"/>
    </contour>
  </outline>
</glyph>
<glyph name="oslash" format="2">
  <advance width="526"/>
  <unicode hex="00F8"/>
  <outline>
    <component base="o"/>
    <contour>
      <point x="142.826" y="-100" type="line"/>
      <point x="282.174" y="600" type="line"/>
      <point x="403.174" y="600" type="line"/>
      <point x="223.826" y="-100" type="line"/>
    </contour>
  </outline>
</glyph>
<glyph name="aogonek" format="2">
  <advance width="731"/>
  <unicode hex="0105"/>
  <outline>
    <component base="a"/>
    <contour>
      <point x="352.769" y="0.8616" type="line"/>
      <point x="327.49" y="-54.6441" type="line" smooth="yes"/>
      <point x="289.835" y="-137.328"/>
      <point x="351.308" y="-216.801"/>
      <point x="514.461" y="-195" type="curve" smooth="yes"/>
      <point x="611.749" y="-182" type="line"/>
      <point x="611.749" y="-32" type="line"/>
      <point x="542.474" y="-59.3071" type="line" smooth="yes"/>
      <point x="524.721" y="-66.3055"/>
      <point x="512.549" y="-50.8911"/>
      <point x="537.285" y="-41.1929" type="curve" smooth="yes"/>
      <point x="642.003" y="-0.138414" type="line"/>
    </contour>
  </outline>
</glyph>
<glyph name="dotlessi" format="2">
  <advance width="306"/>
  <unicode hex="0131"/>
  <outline>
    <contour>
      <point x="276" y="500" type="line"/>
      <point x="238" y="284" type="line"/>
      <point x="257" y="0" type="line"/>
      <point x="37" y="0" type="line"/>
      <point x="53" y="284" type="line"/>
      <point x="65" y="500" type="line"/>
    </contour>
  </outline>
</glyph>
<glyph name="jcircumflex" format="2">
  <advance width="451"/>
  <unicode hex="0135"/>
  <outline>
    <component base="circumflex" xOffset="116.67" yOffset="-50"/>
    <contour>
      <point x="30" y="-226" type="curve"/>
      <point x="30" y="-17" type="line"/>
      <point x="192" y="-69" type="line"/>
      <point x="198" y="284" type="line"/>
      <point x="210" y="500" type="line"/>
      <point x="421" y="500" type="line"/>
      <point x="383" y="284" type="line"/>
      <point x="417" y="-226" type="line"/>
      <point x="311" y="-257"/>
      <point x="139" y="-257"/>
    </contour>
  </outline>
</glyph>
<glyph name="Tcedilla" format="2">
  <advance width="440"/>
  <unicode hex="0162"/>
  <outline>
    <component base="T"/>
    <contour>
      <point x="320" y="-120" type="line"/>
      <point x="330" y="0" type="line"/>
      <point x="110" y="0" type="line"/>
      <point x="110" y="-110" type="line"/>
      <point x="73" y="-205" type="line"/>
      <point x="263" y="-205" type="line"/>
    </contour>
  </outline>
</glyph>
<glyph name="tcedilla" format="2">
  <advance width="449"/>
  <unicode hex="0163"/>
  <outline>
    <component base="t" xOffset="37"/>
    <contour>
      <point x="272" y="-120" type="line"/>
      <point x="282" y="0" type="line"/>
      <point x="62" y="0" type="line"/>
      <point x="62" y="-110" type="line"/>
      <point x="25" y="-205" type="line"/>
      <point x="215" y="-205" type="line"/>
    </contour>
  </outline>
</glyph>
<glyph name="caron" format="2">
  <advance width="385"/>
  <unicode hex="02C7"/>
  <outline>
    <contour>
      <point x="20.6591" y="769.636" type="line"/>
      <point x="94" y="624.636" type="line"/>
      <point x="292" y="624.636" type="line"/>
      <point x="365" y="769.636" type="line"/>
      <point x="206" y="769.636" type="line"/>
      <point x="192.659" y="718.636" type="line"/>
      <point x="179.659" y="770" type="line"/>
    </contour>
  </outline>
</glyph>
<glyph name="dotaccent" format="2">
  <advance width="220"/>
  <unicode hex="02D9"/>
  <outline>
    <contour>
      <point x="190" y="620" type="line"/>
      <point x="200" y="750" type="line"/>
      <point x="20" y="750" type="line"/>
      <point x="20" y="620" type="line"/>
    </contour>
  </outline>
</glyph>
<glyph name="ring" format="2">
  <advance width="228"/>
  <unicode hex="02DA"/>
  <outline>
    <contour>
      <point x="20" y="636.75" type="curve" smooth="yes"/>
      <point x="20" y="585.5"/>
      <point x="62.5" y="543"/>
      <point x="113.75" y="543" type="curve" smooth="yes"/>
      <point x="165" y="543"/>
      <point x="207.5" y="585.5"/>
      <point x="207.5" y="636.75" type="curve" smooth="yes"/>
      <point x="207.5" y="689.05"/>
      <point x="165.55" y="730.5"/>
      <point x="113.75" y="730.5" type="curve" smooth="yes"/>
      <point x="62.5" y="730.5"/>
      <point x="20" y="688"/>
    </contour>
    <contour>
      <point x="99.9" y="637.85" type="curve" smooth="yes"/>
      <point x="99.9" y="646"/>
      <point x="106.7" y="652.8"/>
      <point x="114.85" y="652.8" type="curve" smooth="yes"/>
      <point x="123" y="652.8"/>
      <point x="129.8" y="646"/>
      <point x="129.8" y="637.85" type="curve" smooth="yes"/>
      <point x="129.8" y="629.7"/>
      <point x="123" y="622.9"/>
      <point x="114.85" y="622.9" type="curve" smooth="yes"/>
      <point x="106.7" y="622.9"/>
      <point x="99.9" y="629.7"/>
    </contour>
  </outline>
</glyph>
<glyph name="ogonek" format="2">
  <advance width="289"/>
  <unicode hex="02DB"/>
  <outline>
    <contour>
      <point x="48.0119" y="0.8616" type="line"/>
      <point x="28.7844" y="-54.6441" type="line" smooth="yes"/>
      <point x="0.142317" y="-137.328"/>
      <point x="46.9008" y="-216.801"/>
      <point x="171" y="-195" type="curve" smooth="yes"/>
      <point x="245" y="-182" type="line"/>
      <point x="245" y="-32" type="line"/>
      <point x="192.308" y="-59.3071" type="line" smooth="yes"/>
      <point x="178.804" y="-66.3055"/>
      <point x="169.545" y="-50.8911"/>
      <point x="188.361" y="-41.1929" type="curve" smooth="yes"/>
      <point x="268.012" y="-0.138414" type="line"/>
    </contour>
  </outline>
</glyph>
<glyph name="tilde" format="2">
  <advance width="290"/>
  <unicode hex="02DC"/>
  <outline>
    <contour>
      <point x="20" y="583" type="line"/>
      <point x="95" y="624.101" type="line"/>
      <point x="195" y="576" type="line"/>
      <point x="270" y="617" type="line"/>
      <point x="270" y="770.318" type="line"/>
      <point x="195" y="729.318" type="line"/>
      <point x="94.8209" y="777.318" type="line"/>
      <point x="20" y="736.318" type="line"/>
    </contour>
  </outline>
</glyph>
<glyph name="commaaccentcomb" format="2">
  <advance width="277"/>
  <unicode hex="0326"/>
  <outline>
    <contour>
      <point x="247" y="190" type="line"/>
      <point x="257" y="290" type="line"/>
      <point x="57" y="290" type="line"/>
      <point x="57" y="200" type="line"/>
      <point x="20" y="125" type="line"/>
      <point x="190" y="125" type="line"/>
    </contour>
  </outline>
</glyph>
<glyph name="endash" format="2">
  <advance width="400"/>
  <unicode hex="2013"/>
  <outline>
    <contour>
      <point x="50" y="177" type="line"/>
      <point x="50" y="357" type="line"/>
      <point x="350" y="357" type="line"/>
      <point x="350" y="137" type="line"/>
    </contour>
  </outline>
</glyph>
<glyph name="quoteleft" format="2">
  <advance width="337"/>
  <unicode hex="2018"/>
  <outline>
    <contour>
      <point x="60" y="635" type="line"/>
      <point x="50" y="485" type="line"/>
      <point x="260" y="485" type="line"/>
      <point x="260" y="635" type="line"/>
      <point x="287" y="750" type="line"/>
      <point x="117" y="750" type="line"/>
    </contour>
  </outline>
</glyph>
<glyph name="quoteright" format="2">
  <advance width="337"/>
  <unicode hex="2019"/>
  <outline>
    <contour>
      <point x="277" y="600" type="line"/>
      <point x="287" y="750" type="line"/>
      <point x="77" y="750" type="line"/>
      <point x="77" y="600" type="line"/>
      <point x="50" y="485" type="line"/>
      <point x="220" y="485" type="line"/>
    </contour>
  </outline>
</glyph>
<glyph name="quotesinglbase" format="2">
  <advance width="327"/>
  <unicode hex="201A"/>
  <outline>
    <contour>
      <point x="277" y="0" type="line"/>
      <point x="287" y="150" type="line"/>
      <point x="77" y="150" type="line"/>
      <point x="77" y="0" type="line"/>
      <point x="50" y="-115" type="line"/>
      <point x="220" y="-115" type="line"/>
    </contour>
  </outline>
</glyph>
<glyph name="quotedblleft" format="2">
  <advance width="587"/>
  <unicode hex="201C"/>
  <outline>
    <contour>
      <point x="310" y="635" type="line"/>
      <point x="300" y="485" type="line"/>
      <point x="510" y="485" type="line"/>
      <point x="510" y="635" type="line"/>
      <point x="537" y="750" type="line"/>
      <point x="367" y="750" type="line"/>
    </contour>
    <contour>
      <point x="60" y="635" type="line"/>
      <point x="50" y="485" type="line"/>
      <point x="260" y="485" type="line"/>
      <point x="260" y="635" type="line"/>
      <point x="287" y="750" type="line"/>
      <point x="117" y="750" type="line"/>
    </contour>
  </outline>
</glyph>
<glyph name="quotedblright" format="2">
  <advance width="577"/>
  <unicode hex="201D"/>
  <outline>
    <contour>
      <point x="277" y="600" type="line"/>
      <point x="287" y="750" type="line"/>
      <point x="77" y="750" type="line"/>
      <point x="77" y="600" type="line"/>
      <point x="50" y="485" type="line"/>
      <point x="220" y="485" type="line"/>
    </contour>
    <contour>
      <point x="527" y="600" type="line"/>
      <point x="537" y="750" type="line"/>
      <point x="327" y="750" type="line"/>
      <point x="327" y="600" type="line"/>
      <point x="300" y="485" type="line"/>
      <point x="470" y="485" type="line"/>
    </contour>
  </outline>
</glyph>
<glyph name="quotedblbase" format="2">
  <advance width="577"/>
  <unicode hex="201E"/>
  <outline>
    <contour>
      <point x="277" y="0" type="line"/>
      <point x="287" y="150" type="line"/>
      <point x="77" y="150" type="line"/>
      <point x="77" y="0" type="line"/>
      <point x="50" y="-115" type="line"/>
      <point x="220" y="-115" type="line"/>
    </contour>
    <contour>
      <point x="527" y="0" type="line"/>
      <point x="537" y="150" type="line"/>
      <point x="327" y="150" type="line"/>
      <point x="327" y="0" type="line"/>
      <point x="300" y="-115" type="line"/>
      <point x="470" y="-115" type="line"/>
    </contour>
  </outline>
</glyph>
<glyph name="bullet" format="2">
  <advance width="460"/>
  <unicode hex="2022"/>
  <outline>
    <contour>
      <point x="340" y="172" type="line"/>
      <point x="340" y="392" type="line"/>
      <point x="120" y="392" type="line"/>
      <point x="120" y="172" type="line"/>
    </contour>
  </outline>
</glyph>
<glyph name="Euro" format="2">
  <advance width="563"/>
  <unicode hex="20AC"/>
  <outline>
    <contour>
      <point x="45" y="245" type="line"/>
      <point x="45" y="345" type="line"/>
      <point x="375" y="345" type="line"/>
      <point x="375" y="215" type="line"/>
    </contour>
    <contour>
      <point x="45" y="394" type="line"/>
      <point x="45" y="494" type="line"/>
      <point x="375" y="494" type="line"/>
      <point x="375" y="364" type="line"/>
    </contour>
    <contour>
      <point x="503" y="0" type="line"/>
      <point x="318" y="0" type="line" smooth="yes"/>
      <point x="78" y="0"/>
      <point x="80" y="239"/>
      <point x="80" y="389" type="curve"/>
      <point x="158" y="690" type="line"/>
      <point x="276" y="722"/>
      <point x="405" y="722"/>
      <point x="531" y="690" type="curve"/>
      <point x="531" y="469" type="line"/>
      <point x="337" y="533" type="line"/>
      <point x="270" y="388" type="line"/>
      <point x="270" y="234"/>
      <point x="285" y="190"/>
      <point x="348" y="190" type="curve"/>
      <point x="503" y="210" type="line"/>
    </contour>
  </outline>
</glyph>
